<svg width="358" height="83" viewBox="0 0 358 83" fill="none" xmlns="http://www.w3.org/2000/svg">
<path d="M40.43 16.66H17.35C5.84001 16.66 0 21.65 0 31.48V50.46C0 60.81 6.06001 66.06 18.01 66.06H28.47C31.57 66.06 33.35 64.22 33.35 61.02C33.35 57.82 31.57 56.08 28.47 56.08H18.01C10.87 56.08 10.05 52.88 10.05 50.47V50.18H40.42C51.73 50.18 57.47 45.49 57.47 36.23V30.71C57.47 21.39 51.73 16.66 40.42 16.66H40.43ZM10.06 31.77C10.06 29.53 10.86 26.54 17.8 26.54H39.84C46.58 26.54 47.36 29.3 47.36 31.38V36.42C47.36 37.59 47.36 41.16 39.84 41.16H10.06V31.77Z" fill="white"/>
<path d="M101.03 16.66H86.7099C73.2299 16.66 66.3999 22.23 66.3999 33.23V61.32C66.3999 64.65 68.2599 66.55 71.4999 66.55C74.7399 66.55 76.5999 64.64 76.5999 61.32V33.23C76.5999 30.53 77.6199 26.94 86.4199 26.94H101.26C110.13 26.94 111.15 30.53 111.15 33.23V61.32C111.15 64.65 113.01 66.55 116.25 66.55C119.49 66.55 121.35 64.64 121.35 61.32V33.23C121.35 22.24 114.52 16.66 101.04 16.66H101.03Z" fill="white"/>
<path d="M138.41 0C134.88 0 132.94 2.06 132.94 5.81C132.94 9.56 134.88 11.63 138.41 11.63C141.94 11.63 143.88 9.51 143.88 5.81C143.88 2.11 141.89 0 138.41 0Z" fill="white"/>
<path d="M138.41 16.17C135.22 16.17 133.31 18.13 133.31 21.4V61.3C133.31 64.63 135.17 66.53 138.41 66.53C141.65 66.53 143.51 64.62 143.51 61.3V21.4C143.51 18.12 141.6 16.17 138.41 16.17Z" fill="white"/>
<path d="M189.68 16.66H174.84C161.31 16.66 154.45 22.23 154.45 33.23V48.15C154.45 59.08 161.31 64.62 174.84 64.62H199.87V66.84C199.87 68.23 199.87 72.45 190.8 72.45H179.59C176.54 72.45 174.71 74.3 174.71 77.39C174.71 80.48 176.53 82.33 179.59 82.33H190.8C203.59 82.33 210.07 77.08 210.07 66.73V33.22C210.07 22.23 203.21 16.65 189.68 16.65V16.66ZM164.73 49.4V33.03C164.73 30.41 165.7 26.93 174.1 26.93H190.5C199.87 26.93 199.87 31.52 199.87 33.03V54.82H174.1C164.73 54.82 164.73 50.74 164.73 49.4Z" fill="white"/>
<path d="M274.07 16.66H268.65C263.35 16.66 259.06 18.34 255.9 21.67C252.79 18.35 248.5 16.66 243.13 16.66H237.71C225.88 16.66 219.62 22.25 219.62 32.84V61.31C219.62 64.64 221.48 66.54 224.72 66.54C227.96 66.54 229.82 64.63 229.82 61.31V32.84C229.82 30.31 230.61 26.94 237.49 26.94H242.83C249.89 26.94 250.79 30.1 250.79 32.84V61.31C250.79 64.64 252.65 66.54 255.89 66.54C259.13 66.54 260.91 64.68 260.91 61.31V32.84C260.91 30.09 261.82 26.94 268.95 26.94H274.29C281.23 26.94 282.03 30.31 282.03 32.84V61.31C282.03 64.64 283.89 66.54 287.13 66.54C290.37 66.54 292.23 64.63 292.23 61.31V32.84C292.23 22.26 285.95 16.66 274.07 16.66Z" fill="white"/>
<path d="M339.45 16.66H328.99C325.89 16.66 324.11 18.5 324.11 21.7C324.11 24.9 325.89 26.64 328.99 26.64H339.45C346.59 26.64 347.41 29.84 347.41 32.25V32.54H317.04C305.73 32.54 299.99 37.23 299.99 46.49V52.01C299.99 61.33 305.73 66.06 317.04 66.06H340.12C351.63 66.06 357.46 61.07 357.46 51.24V32.26C357.46 21.91 351.4 16.66 339.45 16.66ZM317.63 56.17C310.89 56.17 310.11 53.41 310.11 51.33V46.29C310.11 45.12 310.11 41.55 317.63 41.55H347.41V50.94C347.41 53.18 346.61 56.17 339.67 56.17H317.63Z" fill="white"/>
</svg>
